<svg width="18" height="17" viewBox="0 0 18 17" fill="none" xmlns="http://www.w3.org/2000/svg">
<path fill-rule="evenodd" clip-rule="evenodd" d="M1.11751 5.80623H4.37507V16.744H1.11751V5.80623ZM2.72548 0.25708C3.81034 0.25708 4.69607 1.1428 4.69607 2.22767C4.69607 3.31253 3.81034 4.19825 2.72548 4.19825C1.64062 4.19825 0.796509 3.31253 0.796509 2.22767C0.796509 1.1428 1.64062 0.25708 2.72548 0.25708ZM6.30404 5.80623H9.51999V7.33395C10.2036 6.32934 11.3301 5.68437 12.617 5.68437H13.5028C15.5536 5.68437 17.2032 7.37259 17.2032 9.38479V16.744H13.9873V15.7394V10.8323C13.9456 9.5869 13.1015 8.62092 11.8562 8.62092C10.6108 8.62092 9.56457 9.5869 9.52296 10.8323V16.744H6.30702V5.80623H6.30404Z" fill="white"/>
</svg>
