<svg width="20" height="19" viewBox="0 0 20 19" fill="none" xmlns="http://www.w3.org/2000/svg">
<path fill-rule="evenodd" clip-rule="evenodd" d="M5.74549 0.286133H14.252C16.9864 0.286133 19.2335 2.53314 19.2335 5.26758V13.7325C19.2335 16.4669 16.9864 18.7139 14.252 18.7139H5.74549C3.01104 18.7139 0.764038 16.4669 0.764038 13.7325V5.26758C0.764038 2.53314 3.01104 0.286133 5.74549 0.286133ZM14.9594 3.50505C15.533 3.50505 16.0175 3.98953 16.0175 4.56317C16.0175 5.13681 15.533 5.62128 14.9594 5.62128C14.3412 5.62128 13.9013 5.13681 13.9013 4.56317C13.9013 3.98953 14.3412 3.50505 14.9594 3.50505ZM9.97794 4.474H10.0225C12.757 4.474 15.0486 6.76559 15.0486 9.50003C15.0486 12.2761 12.757 14.5261 10.0225 14.5261H9.97794C7.24349 14.5261 4.99649 12.2791 4.99649 9.50003C4.99649 6.76559 7.24349 4.474 9.97794 4.474ZM9.97794 6.19195H10.0225C11.8296 6.19195 13.3276 7.68995 13.3276 9.49706C13.3276 11.3488 11.8296 12.8468 10.0225 12.8468H9.97794C8.17083 12.8468 6.67282 11.3488 6.67282 9.49706C6.67282 7.68995 8.17083 6.19195 9.97794 6.19195ZM5.79007 1.8733H14.2104C16.1067 1.8733 17.6493 3.41589 17.6493 5.31217V13.6879C17.6493 15.5842 16.1067 17.1268 14.2104 17.1268H5.79007C3.89379 17.1268 2.35121 15.5842 2.35121 13.6879V5.31217C2.35121 3.41589 3.89379 1.8733 5.79007 1.8733Z" fill="white"/>
</svg>
