<svg width="20" height="17" viewBox="0 0 20 17" fill="none" xmlns="http://www.w3.org/2000/svg">
<path fill-rule="evenodd" clip-rule="evenodd" d="M9.86556 5.42246C9.06888 1.29256 14.1112 -1.16314 17.0822 1.81575C17.0822 1.81575 18.41 1.44952 19.5751 0.717059C19.5751 0.717059 19.1502 2.12966 17.7195 3.0158C17.7195 3.0158 19.3129 2.80653 20 2.38798C20 2.38798 19.3095 3.80058 18.0382 4.3205C18.7286 13.7803 8.38174 19.5288 0 14.8267C0 14.8267 4.13942 15.036 5.8888 13.0511C5.8888 13.0511 3.34274 13.2604 2.06805 10.2292C2.06805 10.2292 3.02407 10.5954 3.97676 10.1246C3.97676 10.1246 1.00581 9.65371 0.740248 6.15164C0.740248 6.15164 1.69627 6.8841 2.75519 6.62251C2.75519 6.62251 -0.534441 4.69 1.32116 1.18793C1.32116 1.18793 4.82324 5.57941 9.86224 5.42246H9.86556Z" fill="white"/>
</svg>
